<?xml version="1.0"?>
<svg xmlns="http://www.w3.org/2000/svg" height="72px" viewBox="0 0 448.00006 448" width="72px" class=""><g transform="matrix(0.94148, 0, 0, 0.94148, 13.1084, 13.1084)"><path d="m259.054688 48 24-48h-118.109376l24 48zm0 0" data-original="#000000" class="active-path" data-old_color="#000000" fill="#7C51C8"/><path d="m251.449219 310.679688c-1.3125.859374-2.84375 1.316406-4.410157 1.320312h-63.039062c-13.253906 0-24 10.746094-24 24s10.746094 24 24 24h104v16h-120c-1.242188 0-2.46875-.289062-3.574219-.847656l-124.648437-62.398438c-9.109375-4.597656-20.039063-3.621094-28.183594 2.527344-7.234375 5.28125-11.5351562 13.683594-11.59375 22.640625v.878906c-.0195312 10.148438 5.527344 19.488281 14.449219 24.328125l135.855469 74.085938c12.933593 7.070312 27.433593 10.78125 42.175781 10.785156h191.519531v-132.121094c-8.214844-6.402344-17.292969-11.613281-26.960938-15.488281-34.738281-14.199219-74.246093-10.351563-105.589843 10.289063zm0 0" data-original="#000000" class="active-path" data-old_color="#000000" fill="#7C51C8"/><path d="m144 336c.027344-22.082031 17.917969-39.972656 40-40h60.679688c31.976562-20.191406 71.171874-25.414062 107.320312-14.304688v-129.695312c.035156-23.347656-9.226562-45.753906-25.738281-62.261719-16.507813-16.511719-38.914063-25.773437-62.261719-25.738281h-80c-48.578125.058594-87.941406 39.421875-88 88v171.007812l49.832031 24.992188c-1.222656-3.882812-1.839843-7.929688-1.832031-12zm64-200h8v-16h16v16h32v16h-56c-8.835938 0-16 7.164062-16 16s7.164062 16 16 16h32c17.671875 0 32 14.328125 32 32s-14.328125 32-32 32h-8v16h-16v-16h-32v-16h56c8.835938 0 16-7.164062 16-16s-7.164062-16-16-16h-32c-17.671875 0-32-14.328125-32-32s14.328125-32 32-32zm-42.007812-53.71875 4 15.488281c-4.90625 1.265625-9.613282 3.199219-13.992188 5.742188l-8-13.847657c5.636719-3.261718 11.6875-5.746093 17.992188-7.382812zm-37.992188 101.71875h-16v-32c-.054688-19.472656 7.84375-38.121094 21.863281-51.632812l11.144531 11.472656c-10.90625 10.507812-17.046874 25.015625-17.007812 40.160156zm0 0" data-original="#000000" class="active-path" data-old_color="#000000" fill="#7C51C8"/><path d="m400 320v128h48v-128zm32 104h-16v-16h16zm0 0" data-original="#000000" class="active-path" data-old_color="#000000" fill="#7C51C8"/></g> </svg>
