<svg id="Capa_1" enable-background="new 0 0 512 512" height="500" viewBox="0 0 512 512" width="500" xmlns="http://www.w3.org/2000/svg" xmlns:xlink="http://www.w3.org/1999/xlink"><linearGradient id="SVGID_1_" gradientUnits="userSpaceOnUse" x1="215.709" x2="852.345" y1="256.001" y2="256.001"><stop offset=".0007011211" stop-color="#fff0d5"/><stop offset=".5112" stop-color="#ffdfff"/><stop offset="1" stop-color="#d9ceff"/></linearGradient><path d="m408.228 154.263c-23.697-9.236-43.717-26.089-55.961-48.381-20.59-37.487-60.43-62.898-106.221-62.898-47.53 0-88.646 27.377-108.477 67.219-12.146 24.401-32.814 43.56-58.09 53.761-37.349 15.074-68.703 49.524-78.653 103.382-1.092 5.91-1.108 11.986-.016 17.896 15.448 83.572 82.399 120.435 143.334 110.66 34.126-5.474 68.672 5.909 93.967 29.462 51.434 47.892 133.884 62.907 213.923 11.57 9.377-6.014 21.957-18.634 27.966-28.015 68.967-107.67 17.879-219.714-71.772-254.656z" fill="url(#SVGID_1_)"/><path d="m450.488 102.191h-81.423v-38.029c0-9.936-8.057-17.993-17.993-17.993h-203.126c-9.936 0-17.993 8.057-17.993 17.993v58.232h-83.97c-4.133 0-7.483 3.386-7.483 7.564v70.937c0 4.177 3.35 7.564 7.483 7.564h83.97v39.848h-83.97c-4.133 0-7.483 3.386-7.483 7.564v131.302c0 4.177 3.35 7.564 7.483 7.564h83.97v33.862c0 9.936 8.057 17.993 17.993 17.993h203.126c9.936 0 17.993-8.057 17.993-17.993v-88.407h36.782c5.501 0 9.96-4.507 9.96-10.068v-48.116c0-5.56-4.459-10.068-9.96-10.068h-36.782v-51.709h81.423c5.54 0 10.031-4.491 10.031-10.031v-97.978c0-5.54-4.491-10.031-10.031-10.031z" fill="#590bb2" opacity=".1"/><path d="m369.065 85.154v364.437c0 9.936-8.057 17.993-17.993 17.993h-203.126c-9.936 0-17.993-8.057-17.993-17.993v-364.437c0-9.936 8.057-17.993 17.993-17.993h203.126c9.936 0 17.993 8.057 17.993 17.993z" fill="#f5f4f9"/><path d="m369.065 307.923v68.255h-19.073c-5.498 0-9.966-4.508-9.966-10.066v-48.112c0-5.568 4.468-10.076 9.966-10.076h19.073z" fill="#e8e6ed"/><path d="m161.271 165.945v70.934c0 4.178-3.349 7.567-7.477 7.567h-23.841v-86.069h23.841c4.129.001 7.477 3.389 7.477 7.568z" fill="#e8e6ed"/><path d="m161.271 291.859v131.302c0 4.178-3.349 7.567-7.477 7.567h-23.841v-146.436h23.841c4.129 0 7.477 3.388 7.477 7.567z" fill="#e8e6ed"/><path d="m369.065 138.175v118.047h-40.215c-5.538 0-10.036-4.498-10.036-10.036v-97.974c0-5.538 4.498-10.036 10.036-10.036h40.215z" fill="#e8e6ed"/><path d="m369.066 170.786v-85.537c0-9.991-8.013-18.09-17.896-18.09h-203.321c-9.884 0-17.896 8.099-17.896 18.09v85.537z" fill="#ffd5b8"/><path d="m320.789 91.966 7.993-24.808h-158.545l7.993 24.808c1.157 3.592 4.47 6.024 8.208 6.024h126.144c3.737 0 7.05-2.431 8.207-6.024z" fill="#cecae0"/><g fill="#590bb2"><path d="m312.582 102.99h-126.144c-5.927 0-11.138-3.814-12.967-9.49l-7.993-24.808c-.847-2.628.598-5.445 3.226-6.292 2.629-.848 5.446.598 6.292 3.226l7.993 24.808c.493 1.529 1.879 2.557 3.449 2.557h126.144c1.57 0 2.956-1.028 3.449-2.558l7.992-24.807c.847-2.628 3.663-4.073 6.292-3.226 2.628.847 4.073 3.664 3.226 6.292l-7.993 24.808c-1.829 5.676-7.04 9.49-12.966 9.49z"/><path d="m351.073 472.582h-203.127c-12.679 0-22.993-10.315-22.993-22.993v-31.254c0-2.761 2.239-5 5-5s5 2.239 5 5v31.254c0 7.165 5.829 12.993 12.993 12.993h203.127c7.165 0 12.993-5.829 12.993-12.993v-86.869c0-2.761 2.239-5 5-5s5 2.239 5 5v86.869c0 12.678-10.314 22.993-22.993 22.993z"/><path d="m369.066 296.335c-2.761 0-5-2.239-5-5v-48c0-2.761 2.239-5 5-5s5 2.239 5 5v48c0 2.761-2.238 5-5 5z"/><path d="m129.953 145.386c-2.761 0-5-2.239-5-5v-55.234c0-12.679 10.314-22.993 22.993-22.993h203.127c12.679 0 22.993 10.314 22.993 22.993v35.85c0 2.761-2.239 5-5 5s-5-2.239-5-5v-35.85c0-7.165-5.829-12.993-12.993-12.993h-203.127c-7.165 0-12.993 5.829-12.993 12.993v55.235c0 2.761-2.239 4.999-5 4.999z"/><path d="m129.953 274.3c-2.761 0-5-2.239-5-5v-36.965c0-2.761 2.239-5 5-5s5 2.239 5 5v36.965c0 2.761-2.239 5-5 5z"/></g><ellipse cx="249.509" cy="242.122" fill="#ffa052" rx="44.789" ry="45.274"/><path d="m261.866 248.671c3.441-3.299 5.6-7.945 5.6-13.098 0-9.979-8.056-18.098-17.958-18.098-9.901 0-17.957 8.119-17.957 18.098 0 5.153 2.159 9.799 5.6 13.098-3.441 3.299-5.6 7.945-5.6 13.098 0 2.761 2.239 5 5 5s5-2.239 5-5c0-4.465 3.569-8.098 7.957-8.098s7.958 3.633 7.958 8.098c0 2.761 2.239 5 5 5s5-2.239 5-5c.001-5.153-2.158-9.799-5.6-13.098zm-20.314-13.098c0-4.465 3.569-8.098 7.957-8.098s7.958 3.633 7.958 8.098-3.57 8.098-7.958 8.098-7.957-3.633-7.957-8.098z" fill="#f5f4f9"/><path d="m282.646 326.398h-66.273c-2.816 0-5.099-2.308-5.099-5.154s2.282-5.154 5.099-5.154h66.273c2.816 0 5.099 2.308 5.099 5.154s-2.283 5.154-5.099 5.154z" fill="#ddd9e4"/><path d="m264.731 345.514h-30.442c-2.816 0-5.099-2.308-5.099-5.154s2.282-5.154 5.099-5.154h30.442c2.816 0 5.099 2.308 5.099 5.154-.001 2.846-2.283 5.154-5.099 5.154z" fill="#c182f9"/><ellipse cx="266.34" cy="402.961" fill="#e2ccff" rx="5.564" ry="5.624"/><ellipse cx="249.51" cy="402.961" fill="#e2ccff" rx="5.564" ry="5.624"/><ellipse cx="232.679" cy="402.961" fill="#e2ccff" rx="5.564" ry="5.624"/><path d="m405.847 361.184h-55.856c-5.501 0-9.96-4.507-9.96-10.068v-48.116c0-5.56 4.459-10.068 9.96-10.068h55.856c5.501 0 9.96 4.507 9.96 10.068v48.116c0 5.56-4.459 10.068-9.96 10.068z" fill="#ffe783"/><path d="m405.847 366.184h-55.856c-8.249 0-14.96-6.759-14.96-15.068v-48.116c0-8.308 6.711-15.067 14.96-15.067h55.856c8.249 0 14.959 6.759 14.959 15.067v48.116c.001 8.309-6.71 15.068-14.959 15.068zm-55.856-68.252c-2.735 0-4.96 2.273-4.96 5.067v48.116c0 2.794 2.225 5.068 4.96 5.068h55.856c2.735 0 4.959-2.273 4.959-5.068v-48.115c0-2.794-2.225-5.067-4.959-5.067h-55.856z" fill="#590bb2"/><path d="m371.145 344.209c-.83 0-1.67-.21-2.443-.651-2.396-1.367-3.241-4.438-1.888-6.859l13.537-24.233c1.352-2.421 4.39-3.275 6.784-1.908 2.396 1.367 3.241 4.438 1.888 6.859l-13.537 24.233c-.915 1.638-2.603 2.559-4.341 2.559z" fill="#ffc136"/><path d="m153.79 229.451h-107.807c-4.133 0-7.483-3.387-7.483-7.564v-70.937c0-4.178 3.35-7.564 7.483-7.564h107.807c4.133 0 7.483 3.387 7.483 7.564v70.937c0 4.178-3.35 7.564-7.483 7.564z" fill="#ffa052"/><path d="m153.791 234.451h-107.808c-6.883 0-12.483-5.636-12.483-12.564v-70.937c0-6.928 5.6-12.564 12.483-12.564h107.808c6.883 0 12.483 5.636 12.483 12.564v70.937c-.001 6.928-5.6 12.564-12.483 12.564zm-107.808-86.065c-1.369 0-2.483 1.15-2.483 2.564v70.937c0 1.414 1.114 2.564 2.483 2.564h107.808c1.369 0 2.483-1.15 2.483-2.564v-70.937c0-1.414-1.114-2.564-2.483-2.564z" fill="#590bb2"/><path d="m76.625 203.551c-1.273 0-2.547-.491-3.517-1.473l-11.974-12.104c-1.943-1.964-1.943-5.148 0-7.111l11.974-12.104c1.941-1.963 5.093-1.963 7.034 0 1.943 1.964 1.943 5.148 0 7.111l-8.456 8.548 8.456 8.548c1.943 1.964 1.943 5.148 0 7.111-.97.983-2.244 1.474-3.517 1.474z" fill="#f5f4f9"/><path d="m123.148 169.287c1.273 0 2.547.491 3.517 1.473l11.974 12.104c1.943 1.964 1.943 5.148 0 7.111l-11.974 12.104c-1.941 1.963-5.093 1.963-7.034 0-1.943-1.964-1.943-5.148 0-7.111l8.456-8.548-8.456-8.548c-1.943-1.964-1.943-5.148 0-7.111.971-.983 2.245-1.474 3.517-1.474z" fill="#f5f4f9"/><path d="m93.121 203.552c-.829 0-1.668-.21-2.441-.651-2.393-1.366-3.237-4.433-1.886-6.851l13.522-24.207c1.35-2.418 4.386-3.271 6.777-1.906 2.393 1.366 3.237 4.433 1.886 6.851l-13.522 24.207c-.914 1.636-2.6 2.557-4.336 2.557z" fill="#f5f4f9"/><path d="m153.79 415.73h-107.807c-4.133 0-7.483-3.387-7.483-7.564v-131.302c0-4.178 3.35-7.564 7.483-7.564h107.807c4.133 0 7.483 3.387 7.483 7.564v131.302c0 4.177-3.35 7.564-7.483 7.564z" fill="#ffc136"/><path d="m153.791 420.73h-107.808c-6.883 0-12.483-5.636-12.483-12.564v-131.302c0-6.928 5.6-12.564 12.483-12.564h56.559c2.761 0 5 2.239 5 5s-2.239 5-5 5h-56.559c-1.369 0-2.483 1.15-2.483 2.564v131.302c0 1.414 1.114 2.564 2.483 2.564h107.808c1.369 0 2.483-1.15 2.483-2.564v-131.302c0-1.414-1.114-2.564-2.483-2.564h-23.838c-2.761 0-5-2.239-5-5s2.239-5 5-5h23.838c6.883 0 12.483 5.636 12.483 12.564v131.302c-.001 6.928-5.6 12.564-12.483 12.564z" fill="#590bb2"/><path d="m450.488 241.223h-121.64c-5.54 0-10.031-4.491-10.031-10.031v-97.978c0-5.54 4.491-10.031 10.031-10.031h121.64c5.54 0 10.031 4.491 10.031 10.031v97.978c0 5.54-4.491 10.031-10.031 10.031z" fill="#f5f4f9"/><path d="m450.542 123.183h-34v118.04h34c5.51 0 9.977-4.515 9.977-10.085v-97.87c0-5.57-4.467-10.085-9.977-10.085z" fill="#ffe783"/><path d="m460.519 156.128v-22.86c0-5.57-4.467-10.085-9.977-10.085h-121.748c-5.51 0-9.977 4.515-9.977 10.085v22.86z" fill="#ffc136"/><path d="m450.542 246.223h-121.748c-8.258 0-14.977-6.767-14.977-15.085v-97.87c0-8.318 6.719-15.085 14.977-15.085h121.748c8.258 0 14.977 6.767 14.977 15.085v22.859c0 2.761-2.239 5-5 5s-5-2.239-5-5v-22.859c0-2.804-2.233-5.085-4.977-5.085h-121.748c-2.744 0-4.977 2.281-4.977 5.085v97.87c0 2.804 2.233 5.085 4.977 5.085h121.748c2.744 0 4.977-2.281 4.977-5.085v-47.302c0-2.761 2.239-5 5-5s5 2.239 5 5v47.302c0 8.318-6.719 15.085-14.977 15.085z" fill="#590bb2"/><path d="m460.519 161.128h-141.702c-2.761 0-5-2.239-5-5s2.239-5 5-5h141.702c2.761 0 5 2.239 5 5s-2.239 5-5 5z" fill="#590bb2"/><path d="m396.494 217.676h-49.482c-2.755 0-4.987-2.257-4.987-5.041s2.233-5.041 4.987-5.041h49.482c2.755 0 4.987 2.257 4.987 5.041s-2.233 5.041-4.987 5.041z" fill="#ddd9e4"/><path d="m369.557 196.745h-22.545c-2.755 0-4.987-2.257-4.987-5.041s2.233-5.041 4.987-5.041h22.545c2.755 0 4.987 2.257 4.987 5.041s-2.233 5.041-4.987 5.041z" fill="#ddd9e4"/><path d="m129.042 344.827h-58.311c-2.753 0-4.984-2.256-4.984-5.038s2.231-5.038 4.984-5.038h58.311c2.753 0 4.984 2.256 4.984 5.038s-2.231 5.038-4.984 5.038z" fill="#f5f4f9"/><path d="m117.098 317.88h-34.423c-2.753 0-4.984-2.256-4.984-5.038s2.231-5.038 4.984-5.038h34.423c2.753 0 4.984 2.256 4.984 5.038s-2.231 5.038-4.984 5.038z" fill="#ffe783"/><path d="m129.042 362.72h-58.311c-2.753 0-4.984-2.256-4.984-5.038s2.231-5.038 4.984-5.038h58.311c2.753 0 4.984 2.256 4.984 5.038 0 2.783-2.231 5.038-4.984 5.038z" fill="#f5f4f9"/><path d="m129.042 380.614h-58.311c-2.753 0-4.984-2.256-4.984-5.038s2.231-5.038 4.984-5.038h58.311c2.753 0 4.984 2.256 4.984 5.038s-2.231 5.038-4.984 5.038z" fill="#f5f4f9"/><path d="m462.528 386.63c-1.335 0-2.615-.534-3.555-1.483l-10.972-11.091c-1.927-1.948-1.927-5.085 0-7.033l10.972-11.091c.939-.949 2.219-1.483 3.555-1.483s2.615.534 3.555 1.483l10.972 11.091c1.927 1.948 1.927 5.085 0 7.033l-10.972 11.091c-.94.948-2.22 1.483-3.555 1.483zm-3.939-16.091 3.938 3.981 3.939-3.981-3.939-3.981z" fill="#c182f9"/><path d="m412.166 414.832c-1.335 0-2.615-.534-3.555-1.483l-10.972-11.091c-1.927-1.948-1.927-5.085 0-7.033l10.972-11.091c.939-.949 2.219-1.483 3.555-1.483 1.335 0 2.615.534 3.555 1.483l10.972 11.091c1.927 1.948 1.927 5.085 0 7.033l-10.972 11.091c-.94.949-2.22 1.483-3.555 1.483zm-3.939-16.091 3.939 3.981 3.938-3.981-3.938-3.981z" fill="#ffa052"/><path d="m89.299 122.632c-2.761 0-5-2.239-5-5 0-3.346-2.668-6.067-5.949-6.067-2.761 0-5-2.239-5-5s2.239-5 5-5c3.28 0 5.949-2.722 5.949-6.067 0-2.761 2.239-5 5-5s5 2.239 5 5c0 3.346 2.668 6.067 5.949 6.067 2.761 0 5 2.239 5 5s-2.239 5-5 5c-3.28 0-5.949 2.722-5.949 6.067 0 2.761-2.239 5-5 5z" fill="#ffe783"/><path d="m107.586 71.552c-2.761 0-5-2.239-5-5 0-3.346-2.668-6.067-5.949-6.067-2.761 0-5-2.239-5-5s2.239-5 5-5c3.28 0 5.949-2.722 5.949-6.067 0-2.761 2.239-5 5-5s5 2.239 5 5c0 3.346 2.668 6.067 5.949 6.067 2.761 0 5 2.239 5 5s-2.239 5-5 5c-3.28 0-5.949 2.722-5.949 6.067 0 2.762-2.239 5-5 5z" fill="#c182f9"/></svg>