<?xml version="1.0"?>
<svg xmlns="http://www.w3.org/2000/svg" id="Layer_35" enable-background="new 0 0 64 64" height="72px" viewBox="0 0 64 64" width="72px" class=""><g><path d="m11 41c-1.897 0-3.667.899-4.792 2.391 1.338 1.005 2.994 1.609 4.792 1.609s3.454-.604 4.792-1.609c-1.125-1.491-2.895-2.391-4.792-2.391z" data-original="#000000" class="active-path" data-old_color="#000000" fill="#7C51C8"/><circle cx="11" cy="36" r="3" data-original="#000000" class="active-path" data-old_color="#000000" fill="#7C51C8"/><path d="m19 37c0-4.411-3.589-8-8-8s-8 3.589-8 8c0 1.893.664 3.633 1.768 5.004.792-.986 1.796-1.763 2.931-2.278-1.034-.917-1.699-2.239-1.699-3.726 0-2.757 2.243-5 5-5s5 2.243 5 5c0 1.487-.665 2.809-1.699 3.726 1.135.516 2.139 1.293 2.931 2.278 1.104-1.371 1.768-3.111 1.768-5.004z" data-original="#000000" class="active-path" data-old_color="#000000" fill="#7C51C8"/><path d="m33 45h2v16h-2z" data-original="#000000" class="active-path" data-old_color="#000000" fill="#7C51C8"/><path d="m60 49c.551 0 1-.449 1-1s-.449-1-1-1h-5.5c-1.378 0-2.5-1.122-2.5-2.5 0-.537.177-1.069.499-1.499 1.613-2.15 2.501-4.814 2.501-7.501v-.5c0-1.654-1.346-3-3-3v1.725c0 3.024-1.178 5.867-3.316 8.005-.711.711-1.515 1.325-2.388 1.824l-6.03 3.446h-3.266v12h3.192l5 2h14.808c.551 0 1-.449 1-1s-.449-1-1-1h-5v-2h5c.551 0 1-.449 1-1s-.449-1-1-1h-5v-2h5c.551 0 1-.449 1-1s-.449-1-1-1h-5v-2z" data-original="#000000" class="active-path" data-old_color="#000000" fill="#7C51C8"/><path d="m17 61h14v-16h-14zm10-4h2v2h-2zm-4 0h2v2h-2zm-4 0h2v2h-2z" data-original="#000000" class="active-path" data-old_color="#000000" fill="#7C51C8"/><circle cx="53" cy="17" r="3" data-original="#000000" class="active-path" data-old_color="#000000" fill="#7C51C8"/><path d="m49.699 20.726c-1.034-.917-1.699-2.239-1.699-3.726 0-2.757 2.243-5 5-5s5 2.243 5 5c0 1.487-.665 2.809-1.699 3.726 1.135.516 2.139 1.293 2.931 2.278 1.104-1.371 1.768-3.111 1.768-5.004 0-4.411-3.589-8-8-8s-8 3.589-8 8c0 1.893.664 3.633 1.768 5.004.792-.986 1.796-1.763 2.931-2.278z" data-original="#000000" class="active-path" data-old_color="#000000" fill="#7C51C8"/><path d="m48.208 24.391c1.338 1.005 2.994 1.609 4.792 1.609s3.454-.604 4.792-1.609c-1.125-1.491-2.895-2.391-4.792-2.391s-3.667.899-4.792 2.391z" data-original="#000000" class="active-path" data-old_color="#000000" fill="#7C51C8"/><circle cx="27" cy="11" r="4" data-original="#000000" class="active-path" data-old_color="#000000" fill="#7C51C8"/><path d="m22.571 18.16 1.034 4.136 1.953-1.465-2.454-2.945c-.181.087-.359.176-.533.274z" data-original="#000000" class="active-path" data-old_color="#000000" fill="#7C51C8"/><path d="m20.829 19.439c-1.112 1.046-1.958 2.383-2.427 3.914 2.182 2.245 5.228 3.647 8.598 3.647s6.416-1.402 8.598-3.647c-.468-1.531-1.314-2.868-2.427-3.914l-1.566 6.264-4.605-3.453-4.605 3.454z" data-original="#000000" class="active-path" data-old_color="#000000" fill="#7C51C8"/><path d="m25.135 17.2 1.865 2.238 1.865-2.238c-.604-.126-1.227-.2-1.865-.2s-1.261.074-1.865.2z" data-original="#000000" class="active-path" data-old_color="#000000" fill="#7C51C8"/><path d="m23.232 15.663c-1.36-1.101-2.232-2.781-2.232-4.663 0-3.309 2.691-6 6-6s6 2.691 6 6c0 1.882-.872 3.562-2.232 4.663 2.784 1.009 5.068 3.112 6.286 5.868 1.226-1.882 1.946-4.122 1.946-6.531 0-6.617-5.383-12-12-12s-12 5.383-12 12c0 2.409.72 4.649 1.947 6.531 1.217-2.756 3.501-4.858 6.285-5.868z" data-original="#000000" class="active-path" data-old_color="#000000" fill="#7C51C8"/><path d="m31.429 18.16c-.174-.098-.352-.187-.533-.274l-2.454 2.945 1.953 1.465z" data-original="#000000" class="active-path" data-old_color="#000000" fill="#7C51C8"/><path d="m23 31h2v2h-2z" data-original="#000000" class="active-path" data-old_color="#000000" fill="#7C51C8"/><path d="m27 31h16v2h-16z" data-original="#000000" class="active-path" data-old_color="#000000" fill="#7C51C8"/><path d="m23 35h20v2h-20z" data-original="#000000" class="active-path" data-old_color="#000000" fill="#7C51C8"/><path d="m23 39h18v2h-18z" data-original="#000000" class="active-path" data-old_color="#000000" fill="#7C51C8"/></g> </svg>
