<?xml version="1.0"?>
<svg xmlns="http://www.w3.org/2000/svg" id="Capa_1" enable-background="new 0 0 512 512" height="72px" viewBox="0 0 512 512" width="72px" class=""><g transform="matrix(0.970299, 0, 0, 0.970299, 7.60345, 7.60345)"><g><g fill="#cdd2e1"><path d="m121.253 122.808h33.133v43.987h-33.133z" transform="matrix(.819 -.574 .574 .819 -58.13 105.238)" data-original="#CDD2E1" class=""/><path d="m354.19 128.234h39.979v33.133h-39.979z" transform="matrix(.574 -.819 .819 .574 40.945 368.257)" data-original="#CDD2E1" class=""/><path d="m239.433 40.633h33.133v66.267h-33.133z" data-original="#CDD2E1" class=""/></g><path d="m222.867 136.167v-39.834c0-3.314 2.686-6 6-6h54.267c3.314 0 6 2.686 6 6v39.833h-66.267z" fill="#9ca1af" data-original="#9CA1AF"/><path d="m283.133 90.333h-23c3.314 0 6 2.686 6 6v39.833h23v-39.833c0-3.313-2.686-6-6-6z" fill="#717891" data-original="#717891"/><path d="m189.733 51.2v-27.133c0-9.15 7.418-16.567 16.568-16.567h99.399c9.15 0 16.568 7.417 16.568 16.567v27.133c0 3.314-2.686 6-6 6h-120.535c-3.314 0-6-2.686-6-6z" fill="#f2f6fc" data-original="#F2F6FC" class=""/><path d="m305.7 7.5h-23c9.15 0 16.568 7.417 16.568 16.567v27.133c0 3.314-2.686 6-6 6h23c3.314 0 6-2.686 6-6v-27.133c-.001-9.15-7.418-16.567-16.568-16.567z" fill="#cdd2e1" data-original="#CDD2E1" class=""/><ellipse cx="256" cy="313.983" fill="#19cffc" rx="190.517" ry="190.517" transform="matrix(.707 -.707 .707 .707 -147.039 272.983)" data-original="#19CFFC" class="" style="fill:#7C51C8" data-old_color="#19cffc"/><path d="m256 123.467c-3.863 0-7.694.129-11.5.355 99.863 5.948 179.017 88.804 179.017 190.161s-79.154 184.214-179.017 190.162c3.806.227 7.637.355 11.5.355 105.22 0 190.517-85.297 190.517-190.517 0-105.219-85.297-190.516-190.517-190.516z" fill="#27ade2" data-original="#27ADE2" class="active-path" style="fill:#7C51C8" data-old_color="#27ade2"/><path d="m84.164 154.823-15.563-22.226c-5.248-7.495-3.427-17.826 4.069-23.074l54.282-38.009c7.495-5.248 17.826-3.427 23.074 4.069l15.563 22.226c1.901 2.714 1.241 6.456-1.473 8.356l-71.595 50.131c-2.715 1.901-6.456 1.241-8.357-1.473z" fill="#f2f6fc" data-original="#F2F6FC" class=""/><ellipse cx="256" cy="313.983" fill="#f2f6fc" rx="157.383" ry="157.383" transform="matrix(.707 -.707 .707 .707 -147.039 272.983)" data-original="#F2F6FC" class=""/><path d="m427.836 154.823 15.563-22.226c5.248-7.495 3.427-17.826-4.069-23.074l-54.282-38.009c-7.495-5.248-17.826-3.427-23.074 4.069l-15.563 22.226c-1.901 2.714-1.241 6.456 1.473 8.356l71.595 50.131c2.715 1.901 6.456 1.241 8.357-1.473z" fill="#f2f6fc" data-original="#F2F6FC" class=""/><path d="m256 156.6c-3.848 0-7.661.145-11.44.417 81.579 5.861 145.944 73.894 145.944 156.967s-64.365 151.105-145.944 156.966c3.779.272 7.592.417 11.44.417 86.92 0 157.383-70.463 157.383-157.383s-70.463-157.384-157.383-157.384z" fill="#cdd2e1" data-original="#CDD2E1" class=""/><ellipse cx="256" cy="313.983" fill="#717891" rx="16.567" ry="16.567" transform="matrix(.956 -.295 .295 .956 -81.119 89.323)" data-original="#717891"/><path d="m439.33 109.523-54.282-38.009c-6.548-4.585-15.258-3.773-20.855 1.502l52.137 36.506c7.495 5.248 9.317 15.579 4.069 23.074l-11.437 16.334 10.518 7.365c2.714 1.901 6.456 1.241 8.356-1.473l15.563-22.226c5.248-7.494 3.426-17.825-4.069-23.073z" fill="#cdd2e1" data-original="#CDD2E1" class=""/><path d="m165.589 97.809-15.563-22.226c-5.248-7.495-15.579-9.317-23.074-4.069l-2.145 1.502c.81.763 1.556 1.619 2.219 2.566l15.563 22.226c1.901 2.714 1.241 6.456-1.473 8.356l-61.076 42.766 4.125 5.891c1.901 2.715 5.642 3.374 8.356 1.473l71.595-50.131c2.714-1.899 3.373-5.64 1.473-8.354z" fill="#cdd2e1" data-original="#CDD2E1" class=""/></g><g><path d="m388.218 166.711 10.876-15.533 20.998 14.703c1.31.917 2.81 1.357 4.295 1.357 2.364 0 4.691-1.115 6.15-3.199l19.004-27.141c7.611-10.87 4.96-25.907-5.91-33.52l-54.281-38.007c-10.871-7.612-25.909-4.959-33.52 5.91l-19.004 27.141c-1.141 1.629-1.588 3.646-1.242 5.604.345 1.959 1.454 3.7 3.084 4.841l20.998 14.703-10.874 15.53c-16.188-8.624-33.704-15.07-52.159-18.934v-29.833c0-4.143-3.357-7.5-7.5-7.5h-9.066v-18.133h42.201c4.143 0 7.5-3.357 7.5-7.5v-33.133c0-13.27-10.797-24.067-24.069-24.067h-99.399c-13.271 0-24.067 10.797-24.067 24.067v33.133c0 4.143 3.358 7.5 7.5 7.5h42.2v18.133h-9.066c-4.142 0-7.5 3.357-7.5 7.5v29.833c-18.455 3.864-35.97 10.31-52.158 18.934l-10.874-15.53 20.998-14.703c1.629-1.141 2.739-2.882 3.084-4.841s-.102-3.976-1.243-5.604l-19.004-27.141c-3.687-5.266-9.205-8.781-15.536-9.898-6.33-1.117-12.718.3-17.983 3.987l-54.282 38.008c-10.87 7.613-13.521 22.649-5.91 33.52l19.004 27.141c1.459 2.084 3.786 3.199 6.15 3.199 1.486 0 2.986-.44 4.295-1.357l20.998-14.703 10.876 15.533c-40.366 36.276-65.799 88.857-65.799 147.272 0 109.187 88.83 198.017 198.017 198.017 47.366 0 93.202-16.988 129.065-47.837 3.141-2.701 3.496-7.436.795-10.576-2.701-3.141-7.438-3.497-10.576-.795-33.143 28.508-75.506 44.208-119.284 44.208-100.916 0-183.017-82.101-183.017-183.017s82.101-183.016 183.017-183.016 183.017 82.101 183.017 183.017c0 43.338-15.421 85.374-43.423 118.364-2.681 3.158-2.294 7.891.864 10.571 3.159 2.683 7.892 2.292 10.571-.864 30.301-35.698 46.987-81.182 46.987-128.071.001-58.416-25.432-110.997-65.798-147.273zm-20.101-86.826c1.39-1.983 3.468-3.308 5.853-3.729 2.381-.421 4.791.113 6.775 1.502l54.281 38.008c4.096 2.868 5.095 8.533 2.228 12.629l-14.702 20.997-14.855-10.401 5.2-7.427c2.376-3.393 1.552-8.069-1.842-10.445-3.393-2.376-8.069-1.551-10.445 1.842l-5.2 7.427-7.427-5.2-7.427-5.201 5.2-7.427c2.376-3.394 1.551-8.07-1.842-10.445-3.392-2.376-8.069-1.551-10.445 1.842l-5.2 7.427-14.854-10.401zm3.836 52.289 7.427 5.2 7.427 5.201-10.158 14.507c-4.783-3.686-9.736-7.162-14.849-10.407zm-174.72-108.107c0-5 4.067-9.067 9.067-9.067h99.399c5 0 9.068 4.067 9.068 9.067v25.633h-18.134v-9.067c0-4.143-3.357-7.5-7.5-7.5s-7.5 3.357-7.5 7.5v9.067h-9.067-9.066v-9.067c0-4.143-3.357-7.5-7.5-7.5-4.142 0-7.5 3.357-7.5 7.5v9.067h-9.067-9.066v-9.067c0-4.143-3.358-7.5-7.5-7.5s-7.5 3.357-7.5 7.5v9.067h-18.134zm49.7 40.633h18.133v18.133h-18.133zm-157.486 84.592-14.702-20.997c-2.868-4.096-1.868-9.761 2.227-12.629l54.282-38.008c1.58-1.106 3.392-1.637 5.188-1.637 2.861 0 5.679 1.348 7.44 3.863l14.703 20.997-14.855 10.401-5.201-7.427c-2.376-3.394-7.053-4.217-10.445-1.842-3.393 2.376-4.218 7.052-1.842 10.445l5.201 7.427-7.427 5.2-7.427 5.2-5.2-7.427c-2.375-3.394-7.052-4.217-10.445-1.842-3.393 2.376-4.218 7.053-1.842 10.445l5.2 7.427zm35.746-6.718.869-.609 13.985-9.792 10.153 14.5c-5.114 3.245-10.066 6.721-14.849 10.408zm105.174-24.951v-19.79h9.066 33.133 9.066v19.79c-8.393-1.09-16.948-1.657-25.633-1.657-8.684.001-17.239.568-25.632 1.657z" data-original="#000000" class="" data-old_color="#000000" style="fill:#7C51C8"/><path d="m256 149.1c-90.917 0-164.883 73.967-164.883 164.884s73.966 164.883 164.883 164.883 164.883-73.967 164.883-164.884-73.966-164.883-164.883-164.883zm0 314.767c-82.646 0-149.883-67.237-149.883-149.884s67.237-149.883 149.883-149.883 149.883 67.237 149.883 149.884-67.237 149.883-149.883 149.883z" data-original="#000000" class="" data-old_color="#000000" style="fill:#7C51C8"/><path d="m256 222.083c4.143 0 7.5-3.357 7.5-7.5v-24.85c0-4.143-3.357-7.5-7.5-7.5-4.142 0-7.5 3.357-7.5 7.5v24.85c0 4.143 3.358 7.5 7.5 7.5z" data-original="#000000" class="" data-old_color="#000000" style="fill:#7C51C8"/><path d="m164.1 313.983c0-4.143-3.358-7.5-7.5-7.5h-24.85c-4.142 0-7.5 3.357-7.5 7.5s3.358 7.5 7.5 7.5h24.85c4.142 0 7.5-3.357 7.5-7.5z" data-original="#000000" class="" data-old_color="#000000" style="fill:#7C51C8"/><path d="m256 405.883c-4.142 0-7.5 3.357-7.5 7.5v24.851c0 4.143 3.358 7.5 7.5 7.5 4.143 0 7.5-3.357 7.5-7.5v-24.851c0-4.143-3.357-7.5-7.5-7.5z" data-original="#000000" class="" data-old_color="#000000" style="fill:#7C51C8"/><path d="m380.25 306.483h-24.85c-4.143 0-7.5 3.357-7.5 7.5s3.357 7.5 7.5 7.5h24.85c4.143 0 7.5-3.357 7.5-7.5s-3.357-7.5-7.5-7.5z" data-original="#000000" class="" data-old_color="#000000" style="fill:#7C51C8"/><path d="m173.445 220.822c-2.928-2.929-7.677-2.93-10.606-.001s-2.929 7.678 0 10.606l11.714 11.715c1.464 1.465 3.384 2.197 5.303 2.197s3.839-.732 5.303-2.196c2.929-2.929 2.929-7.678 0-10.607z" data-original="#000000" class="" data-old_color="#000000" style="fill:#7C51C8"/><path d="m174.553 384.824-11.714 11.715c-2.929 2.929-2.929 7.678 0 10.606 1.464 1.464 3.384 2.196 5.303 2.196s3.839-.732 5.303-2.197l11.714-11.715c2.929-2.929 2.929-7.678 0-10.606-2.928-2.927-7.677-2.928-10.606.001z" data-original="#000000" class="" data-old_color="#000000" style="fill:#7C51C8"/><path d="m337.447 384.823c-2.93-2.928-7.678-2.928-10.607 0-2.929 2.93-2.929 7.678 0 10.607l11.715 11.715c1.465 1.464 3.385 2.196 5.304 2.196s3.839-.732 5.304-2.196c2.929-2.93 2.929-7.678 0-10.607z" data-original="#000000" class="" data-old_color="#000000" style="fill:#7C51C8"/><path d="m332.144 245.34c1.919 0 3.839-.732 5.304-2.196l11.715-11.715c2.929-2.93 2.929-7.678 0-10.607-2.93-2.928-7.678-2.928-10.607 0l-11.715 11.715c-2.929 2.93-2.929 7.678 0 10.607 1.464 1.463 3.384 2.196 5.303 2.196z" data-original="#000000" class="" data-old_color="#000000" style="fill:#7C51C8"/><path d="m292.179 232.58c-3.787-1.683-8.218.022-9.899 3.808l-23.845 53.652c-.801-.081-1.613-.123-2.434-.123-13.271 0-24.067 10.796-24.067 24.066s10.795 24.067 24.066 24.067c13.27 0 24.066-10.796 24.066-24.066 0-7.068-3.063-13.433-7.93-17.839l23.85-53.665c1.683-3.786-.022-8.217-3.807-9.9zm-36.179 90.47c-5 0-9.067-4.067-9.067-9.066s4.067-9.066 9.067-9.066c4.999 0 9.066 4.067 9.066 9.066s-4.067 9.066-9.066 9.066z" data-original="#000000" class="" data-old_color="#000000" style="fill:#7C51C8"/></g></g> </svg>
