<svg id="Capa_1" enable-background="new 0 0 512 512" height="500" viewBox="0 0 512 512" width="500" xmlns="http://www.w3.org/2000/svg" xmlns:xlink="http://www.w3.org/1999/xlink"><linearGradient id="SVGID_1_" gradientUnits="userSpaceOnUse" x1="175.918" x2="833.668" y1="283.616" y2="283.616"><stop offset=".0007011211" stop-color="#fff0d5"/><stop offset=".5112" stop-color="#ffdfff"/><stop offset="1" stop-color="#d9ceff"/></linearGradient><path d="m482.969 171.337c-34.945-35.948-89.48-40.907-129.831-14.878-11.48 7.405-25.381 9.888-38.717 6.927-31.565-7.009-64.584-2.222-92.707 13.042-18.907 10.261-41.936 8.477-59.579-3.83-11.712-8.169-25.312-14.023-40.257-16.777-55.438-10.217-109.337 26.553-119.994 81.907-10.899 56.609 26.628 111.012 83.196 121.089 13.821 2.462 27.488 2.047 40.388-.816 20.936-4.646 42.81 3.122 56.321 19.776 8.528 10.512 18.812 19.894 30.757 27.689 61.731 40.28 144.427 22.89 184.707-38.84.043-.065.085-.131.128-.196 7.377-11.349 18.851-19.44 32.12-22.119 19.353-3.907 37.801-13.404 52.756-28.495 39.373-39.732 39.701-104.371.712-144.479z" fill="url(#SVGID_1_)"/><path d="m481 329.616v-71.391c0-5.524-4.478-10.003-10.003-10.003h-49.013v-109.25c0-8.286-6.718-15.004-15.004-15.004h-273.17c-8.286 0-15.004 6.717-15.004 15.004v79.242h-77.803c-5.524 0-10.003 4.478-10.003 10.003v101.399z" fill="#590bb2" opacity=".1"/><path d="m315.41 425.264h-90.03l11.79-46.7 6.22-24.65h54.01l6.22 24.65z" fill="#afabc6"/><path d="m303.62 378.564h-66.45l6.22-24.65h54.01z" fill="#8e8ca8"/><path d="m406.981 367.564h-273.17c-8.286 0-15.004-6.717-15.004-15.004v-195.588c0-8.286 6.717-15.004 15.004-15.004h273.17c8.286 0 15.004 6.717 15.004 15.004v195.588c0 8.286-6.718 15.004-15.004 15.004z" fill="#f5f4f9"/><path d="m380.896 255.494h-221c-1.657 0-3-1.343-3-3v-72.294h227v72.295c0 1.656-1.343 2.999-3 2.999z" fill="#ffbe92"/><path d="m291.65 278.89h-106.52c-2.762 0-5-2.239-5-5s2.238-5 5-5h106.52c2.762 0 5 2.239 5 5s-2.239 5-5 5z" fill="#ddd9e4"/><path d="m291.65 298.89h-106.52c-2.762 0-5-2.239-5-5s2.238-5 5-5h106.52c2.762 0 5 2.239 5 5s-2.239 5-5 5z" fill="#ddd9e4"/><path d="m344.65 298.89h-16.52c-2.762 0-5-2.239-5-5s2.238-5 5-5h16.52c2.762 0 5 2.239 5 5s-2.239 5-5 5z" fill="#ffbe92"/><path d="m421.985 180.2v-23.228c0-8.286-6.718-15.004-15.004-15.004h-273.17c-8.286 0-15.004 6.717-15.004 15.004v23.228z" fill="#c182f9"/><path d="m118.807 327.572v24.988c0 8.286 6.718 15.004 15.004 15.004h273.17c8.286 0 15.004-6.717 15.004-15.004v-24.988z" fill="#cecae0"/><path d="m470.997 425.264h-74.019c-5.524 0-10.003-4.478-10.003-10.003v-139.036c0-5.524 4.478-10.003 10.003-10.003h74.019c5.524 0 10.003 4.478 10.003 10.003v139.036c0 5.524-4.478 10.003-10.003 10.003z" fill="#ffa052"/><path d="m386.976 363.283v51.978c0 5.524 4.478 10.003 10.002 10.003h74.019c5.524 0 10.003-4.478 10.003-10.003v-51.978z" fill="#f5f4f9"/><path d="m453.03 280.441 4.631-14.219h-47.346l4.631 14.219c.671 2.059 2.59 3.453 4.755 3.453h28.573c2.166 0 4.085-1.394 4.756-3.453z" fill="#cecae0"/><path d="m175.038 425.264h-134.035c-5.524 0-10.003-4.478-10.003-10.003v-169.044c0-5.524 4.478-10.003 10.003-10.003h134.035c5.524 0 10.003 4.478 10.003 10.003v169.044c-.001 5.524-4.479 10.003-10.003 10.003z" fill="#f5f4f9"/><path d="m185.04 268.89v-22.673c0-5.524-4.478-10.003-10.003-10.003h-134.034c-5.524 0-10.003 4.478-10.003 10.003v22.673z" fill="#fdd250"/><path d="m88.52 405.116h-31c-1.657 0-3-1.343-3-3v-107.5c0-1.657 1.343-3 3-3h31c1.657 0 3 1.343 3 3v107.5c0 1.657-1.343 3-3 3z" fill="#ffbe92"/><path d="m158.52 328.616h-50c-1.657 0-3-1.343-3-3v-31c0-1.657 1.343-3 3-3h50c1.657 0 3 1.343 3 3v31c0 1.657-1.343 3-3 3z" fill="#ffbe92"/><path d="m158.52 405.116h-50c-1.657 0-3-1.343-3-3v-56.552c0-1.657 1.343-3 3-3h50c1.657 0 3 1.343 3 3v56.552c0 1.657-1.343 3-3 3z" fill="#ffbe92"/><g fill="#590bb2"><path d="m149.03 156.026c-2.762 0-5 2.239-5 5v.115c0 2.761 2.238 5 5 5s5-2.239 5-5v-.115c0-2.761-2.238-5-5-5z"/><path d="m164.368 156.026c-2.762 0-5 2.239-5 5v.115c0 2.761 2.238 5 5 5s5-2.239 5-5v-.115c0-2.761-2.238-5-5-5z"/><path d="m179.705 156.026c-2.762 0-5 2.239-5 5v.115c0 2.761 2.238 5 5 5s5-2.239 5-5v-.115c0-2.761-2.238-5-5-5z"/><path d="m470.997 261.222h-44.013v-104.25c0-11.03-8.974-20.004-20.004-20.004h-273.17c-11.03 0-20.004 8.974-20.004 20.004v51.702c0 2.761 2.238 5 5 5s5-2.239 5-5v-23.474h293.178v76.022h-20.006c-8.272 0-15.003 6.73-15.003 15.003v23.806c0 2.761 2.238 5 5 5s5-2.239 5-5v-23.806c0-2.759 2.244-5.003 5.003-5.003h9.707l3.506 10.768c1.346 4.129 5.167 6.904 9.51 6.904h28.573c4.343 0 8.164-2.774 9.51-6.904l3.506-10.767h9.707c2.759 0 5.003 2.244 5.003 5.003v139.036c0 2.758-2.244 5.002-5.003 5.002h-74.019c-2.759 0-5.003-2.244-5.003-5.002v-87.689c0-2.761-2.238-5-5-5h-196.935v-76.355c0-8.272-6.73-15.002-15.003-15.002h-134.034c-8.272 0-15.003 6.73-15.003 15.002v169.044c0 8.272 6.73 15.002 15.003 15.002h134.034c8.272 0 15.003-6.73 15.003-15.002v-42.697h43.486l-12.037 47.7h-11.359c-2.762 0-5 2.239-5 5s2.238 5 5 5h120.531c2.762 0 5-2.239 5-5s-2.238-5-5-5h-11.359l-12.036-47.7h74.71v42.697c0 8.272 6.73 15.002 15.003 15.002h74.019c8.272 0 15.003-6.73 15.003-15.002v-139.037c-.001-8.272-6.731-15.003-15.004-15.003zm-347.19-86.022v-18.228c0-5.516 4.487-10.004 10.004-10.004h273.17c5.517 0 10.004 4.488 10.004 10.004v18.228zm324.467 103.694h-28.575l-2.498-7.671h33.572zm-407.271-37.68h134.034c2.759 0 5.003 2.244 5.003 5.002v17.673h-144.04v-17.673c0-2.758 2.244-5.002 5.003-5.002zm139.037 174.047c0 2.758-2.244 5.002-5.003 5.002h-134.034c-2.759 0-5.003-2.244-5.003-5.002v-141.371h144.04zm128.949 5.003h-77.187l12.036-47.7h53.115zm-118.949-57.7v-29.992h191.936v29.992z"/><path d="m57.174 257.61c2.762 0 5-2.239 5-5v-.115c0-2.761-2.238-5-5-5s-5 2.239-5 5v.115c0 2.761 2.238 5 5 5z"/><path d="m72.511 257.61c2.762 0 5-2.239 5-5v-.115c0-2.761-2.238-5-5-5s-5 2.239-5 5v.115c0 2.761 2.238 5 5 5z"/><path d="m87.848 257.61c2.762 0 5-2.239 5-5v-.115c0-2.761-2.238-5-5-5s-5 2.239-5 5v.115c0 2.761 2.238 5 5 5z"/><path d="m268.097 215.151 2.299-2.298 2.299 2.298c.977.976 2.256 1.464 3.535 1.464s2.56-.488 3.536-1.465c1.952-1.953 1.952-5.118-.001-7.071l-5.834-5.833c-1.951-1.952-5.119-1.952-7.07 0l-5.834 5.833c-1.953 1.953-1.953 5.118-.001 7.071 1.953 1.954 5.12 1.954 7.071.001z"/></g><path d="m424 401.949h-14c-1.657 0-3-1.343-3-3v-85.833c0-1.657 1.343-3 3-3h14c1.657 0 3 1.343 3 3v85.833c0 1.657-1.343 3-3 3z" fill="#ffe783"/><path d="m397.896 113.736c-2.762 0-5-2.239-5-5 0-3.309-2.691-6-6-6-2.762 0-5-2.239-5-5s2.238-5 5-5c3.309 0 6-2.691 6-6 0-2.761 2.238-5 5-5s5 2.239 5 5c0 3.309 2.691 6 6 6 2.762 0 5 2.239 5 5s-2.238 5-5 5c-3.309 0-6 2.691-6 6 0 2.762-2.239 5-5 5z" fill="#ffe783"/><path d="m457.661 243.347c-2.762 0-5-2.239-5-5 0-3.309-2.692-6-6.001-6-2.762 0-5-2.239-5-5s2.238-5 5-5c3.309 0 6.001-2.691 6.001-6 0-2.761 2.238-5 5-5s5 2.239 5 5c0 3.309 2.691 6 5.999 6 2.762 0 5 2.239 5 5s-2.238 5-5 5c-3.308 0-5.999 2.691-5.999 6 0 2.761-2.238 5-5 5z" fill="#c182f9"/><path d="m443.66 135.912c-1.279 0-2.56-.488-3.535-1.464l-11-11c-1.953-1.953-1.953-5.119 0-7.071l11-11c1.951-1.952 5.119-1.952 7.07 0l11 11c1.953 1.953 1.953 5.119 0 7.071l-11 11c-.975.976-2.256 1.464-3.535 1.464zm-3.929-16 3.929 3.929 3.929-3.929-3.929-3.929z" fill="#ffa052"/><path d="m73.021 208.336c-1.279 0-2.56-.488-3.535-1.464l-11-11c-1.953-1.953-1.953-5.119 0-7.071l11-11c1.951-1.952 5.119-1.952 7.07 0l11 11c1.953 1.953 1.953 5.119 0 7.071l-11 11c-.976.976-2.256 1.464-3.535 1.464zm-3.929-16 3.929 3.929 3.929-3.929-3.929-3.929z" fill="#ffa052"/><circle cx="363.333" cy="236.197" fill="#ff8736" r="5.59"/><circle cx="363.333" cy="219.287" fill="#ff8736" r="5.59"/><circle cx="363.333" cy="202.377" fill="#ff8736" r="5.59"/></svg>